# xmcd
#
# Track frame offsets: 
#        150
#        1222
#        11952
#        23505
#        47285
#        57770
#        68854
#        77783
#        78907
#        90557
#        102181
#        113215
#        125394
#        134550
#
# Disc length: 2017 seconds
#
# Revision: 0
# Processed by: cddbd v1.5.2PL0 Copyright (c) Steve Scherf et al.
# Submitted via: ExactAudioCopy v1.0b1
#
DISCID=a407df0e
DTITLE=Bolb Wills and His Texas Playboys - Let's Play House
DYEAR=2016
DGENRE=Western Swing
TTITLE0=Thank You Mr. Moon Intro
TTITLE1=Thank You Mr. Moon
TTITLE2=Draggin' the Bow
TTITLE3=Sittin' On Top of the World
TTITLE4=Take Me Back to Tulsa
TTITLE5=Little Coquette
TTITLE6=Ida Red
TTITLE7=Bob Talks
TTITLE8=Blues for Dixie
TTITLE9=There'll Be Some Changes Made
TTITLE10=Jesse Polka
TTITLE11=Sugar Blues
TTITLE12=A Little Bird Told Me
TTITLE13=Bring It On Down to My House, Honey
EXTD=
EXTT0=
EXTT1=
EXTT2=
EXTT3=
EXTT4=
EXTT5=
EXTT6=
EXTT7=
EXTT8=
EXTT9=
EXTT10=
EXTT11=
EXTT12=
EXTT13=
PLAYORDER=
